# xmcd
#
# Track frame offsets:
#	150
#	18410
#	39045
#	55470
#	68252
#	84865
#	100542
#	119440
#	133407
#
# Disc length: 2019 seconds
#
# Revision: 1
# Processed by: cddbd v1.4PL0 Copyright (c) Steve Scherf et al.
# Submitted via: audiograbber 1.82.02
#
DISCID=6707e109
DTITLE=gladys knight and the pips - all i need is time
DYEAR=1973
DGENRE=soul
TTITLE0=i'll be there (when you get home)
TTITLE1=all i need is time
TTITLE2=heavy makes you happy
TTITLE3=the only time you love me is when you're losing me
TTITLE4=here i am again
TTITLE5=there's a lesson to be learned
TTITLE6=oh! what a love i have found
TTITLE7=the singer
TTITLE8=thank you (falletin me be mice elf agin)
EXTD=
EXTT0=
EXTT1=
EXTT2=
EXTT3=
EXTT4=
EXTT5=
EXTT6=
EXTT7=
EXTT8=
PLAYORDER=
